<?xml version="1.0" encoding="UTF-8"?>
<!DOCTYPE svg PUBLIC "-//W3C//DTD SVG 1.1//EN" "http://www.w3.org/Graphics/SVG/1.1/DTD/svg11.dtd">
<svg xmlns="http://www.w3.org/2000/svg" version="1.1" width="171px" height="81px" style="shape-rendering:geometricPrecision; text-rendering:geometricPrecision; image-rendering:optimizeQuality; fill-rule:evenodd; clip-rule:evenodd" xmlns:xlink="http://www.w3.org/1999/xlink">
<g><path style="opacity:0.997" fill="#814c10" d="M 86.5,-0.5 C 87.5,-0.5 88.5,-0.5 89.5,-0.5C 92.1041,1.60004 94.6041,3.93337 97,6.5C 98.3158,9.68835 98.8158,13.0217 98.5,16.5C 103.391,15.0969 108.391,14.4302 113.5,14.5C 110.69,23.4755 104.69,29.3088 95.5,32C 97.8635,34.5056 99.5302,37.3389 100.5,40.5C 99.1779,40.67 98.0113,40.3366 97,39.5C 97.0773,40.7376 96.9106,41.7376 96.5,42.5C 95.4822,41.8075 94.4822,41.1408 93.5,40.5C 93.5774,39.2502 94.244,38.4169 95.5,38C 91.0314,29.2042 85.0314,21.7042 77.5,15.5C 78.172,14.7326 79.0053,14.0659 80,13.5C 80.7175,14.4506 81.5509,14.6172 82.5,14C 82.2479,8.89623 83.5813,4.06289 86.5,-0.5 Z"/></g>
<g><path style="opacity:0.922" fill="#4e200f" d="M 77.5,15.5 C 85.0314,21.7042 91.0314,29.2042 95.5,38C 94.244,38.4169 93.5774,39.2502 93.5,40.5C 93.5,43.1667 93.5,45.8333 93.5,48.5C 92.5,48.5 91.5,48.5 90.5,48.5C 90.2785,45.9327 89.6118,43.5994 88.5,41.5C 87.739,38.1461 86.0723,35.3128 83.5,33C 81.6546,33.7827 79.6546,34.116 77.5,34C 78.1667,33.3333 78.8333,32.6667 79.5,32C 76.7086,30.3815 73.7086,29.2149 70.5,28.5C 70.8104,26.7988 70.3104,25.1322 69,23.5C 66.4031,20.7977 63.5697,18.4644 60.5,16.5C 66.0634,14.326 71.7301,13.9927 77.5,15.5 Z"/></g>
<g><path style="opacity:0.905" fill="#3c251a" d="M 91.5,80.5 C 90.8333,80.5 90.1667,80.5 89.5,80.5C 91.3012,66.6261 94.9678,53.2928 100.5,40.5C 103.373,35.1332 107.706,31.2999 113.5,29C 123.411,27.5105 124.411,29.1772 116.5,34C 106.461,44.5744 99.9615,57.0744 97,71.5C 95.6574,74.8619 93.824,77.8619 91.5,80.5 Z"/></g>
<g><path style="opacity:0.905" fill="#3c251a" d="M 121.5,34.5 C 132.383,34.5441 136.883,39.8775 135,50.5C 130.236,57.5995 124.403,63.7662 117.5,69C 120.897,68.9874 124.23,68.3207 127.5,67C 137.848,58.5883 140.014,60.4217 134,72.5C 132.786,74.0488 131.286,75.2155 129.5,76C 122.375,78.0806 115.375,77.914 108.5,75.5C 112.27,68.9633 116.77,62.9633 122,57.5C 124.805,53.909 125.805,49.909 125,45.5C 122.843,40.9175 120.01,40.4175 116.5,44C 118.229,45.7889 118.896,47.9556 118.5,50.5C 111.069,51.2398 108.902,48.2398 112,41.5C 114.529,38.1151 117.696,35.7818 121.5,34.5 Z"/></g>
<g><path style="opacity:0.922" fill="#3c251a" d="M 170.5,48.5 C 170.5,53.5 170.5,58.5 170.5,63.5C 166.555,75.4396 158.555,79.2729 146.5,75C 136.602,65.0412 135.102,53.8745 142,41.5C 148.251,34.9893 155.418,33.8227 163.5,38C 166.738,40.9978 169.071,44.4978 170.5,48.5 Z M 152.5,39.5 C 154.903,39.393 156.736,40.393 158,42.5C 162.148,51.0204 162.482,59.6871 159,68.5C 156.523,73.3681 153.523,73.7014 150,69.5C 146.097,59.0003 146.93,49.0003 152.5,39.5 Z"/></g>
<g><path style="opacity:0.834" fill="#000000" d="M -0.5,37.5 C 4.76162,37.1953 9.92828,37.5286 15,38.5C 17.4683,47.5703 20.1349,56.5703 23,65.5C 25.6096,59.9474 27.9429,54.2808 30,48.5C 30.5787,44.7973 30.412,41.1306 29.5,37.5C 33.5,37.5 37.5,37.5 41.5,37.5C 41.67,38.8221 41.3366,39.9887 40.5,41C 44.8517,41.7521 49.1851,42.5855 53.5,43.5C 51.0694,48.1871 50.0694,53.1871 50.5,58.5C 50.3829,65.0259 51.3829,71.3593 53.5,77.5C 48.8333,77.5 44.1667,77.5 39.5,77.5C 40.929,71.5924 41.929,65.5924 42.5,59.5C 42.2501,54.3303 41.2501,49.3303 39.5,44.5C 33.7461,54.3395 28.2461,64.3395 23,74.5C 21.276,77.7303 19.276,78.0636 17,75.5C 13.9764,65.4291 9.97638,55.7624 5,46.5C 3.66895,44.0038 1.83562,42.0038 -0.5,40.5C -0.5,39.5 -0.5,38.5 -0.5,37.5 Z"/></g>
<g><path style="opacity:0.812" fill="#000000" d="M 88.5,41.5 C 86.5266,44.9074 85.0266,48.5741 84,52.5C 83.7665,60.8875 83.5998,69.2209 83.5,77.5C 79.1903,75.0238 75.6903,71.6905 73,67.5C 69.4145,61.9979 66.0812,56.3312 63,50.5C 62.3333,55.8333 62.3333,61.1667 63,66.5C 64.2132,70.2329 65.3799,73.8996 66.5,77.5C 63.1667,77.5 59.8333,77.5 56.5,77.5C 60.4589,65.8283 60.4589,54.1616 56.5,42.5C 62.5351,41.2332 67.7018,42.8998 72,47.5C 74.3333,50.8333 76.6667,54.1667 79,57.5C 79.3937,52.4198 78.8937,47.4198 77.5,42.5C 81.1073,41.5108 84.774,41.1774 88.5,41.5 Z"/></g>
</svg>
